HIERARCHY
ROOT Hips
{
    OFFSET 0.000000 0.000000 0.000000
    CHANNELS 6 Xposition Yposition Zposition Zrotation Xrotation Yrotation
    JOINT Spine
    {
        OFFSET -0.000000 14.517291 0.000000
        CHANNELS 3 Zrotation Xrotation Yrotation
        JOINT Spine1
        {
            OFFSET -0.000000 37.558300 0.000000
            CHANNELS 3 Zrotation Xrotation Yrotation
            JOINT Neck
            {
                OFFSET -0.000000 37.404057 3.400369
                CHANNELS 3 Zrotation Xrotation Yrotation
                JOINT Head
                {
                    OFFSET -0.000000 24.785618 -3.540803
                    CHANNELS 3 Zrotation Xrotation Yrotation
                    End Site
                    {
                        OFFSET -0.000000 35.408028 0.000000
                    }
                }
            }
            JOINT LeftShoulder
            {
                OFFSET 6.992933 33.973492 -0.192664
                CHANNELS 3 Zrotation Xrotation Yrotation
                JOINT LeftArm
                {
                    OFFSET 21.527611 0.000000 0.000000
                    CHANNELS 3 Zrotation Xrotation Yrotation
                    JOINT LeftForeArm
                    {
                        OFFSET 56.353916 0.000000 0.000000
                        CHANNELS 3 Zrotation Xrotation Yrotation
                        JOINT LeftHand
                        {
                            OFFSET 47.774071 0.000000 0.000000
                            CHANNELS 3 Zrotation Xrotation Yrotation
                            End Site
                            {
                                OFFSET 26.556021 0.000000 0.000000
                            }
                        }
                    }
                }
            }
            JOINT RightShoulder
            {
                OFFSET -7.065357 33.973492 -0.192664
                CHANNELS 3 Zrotation Xrotation Yrotation
                JOINT RightArm
                {
                    OFFSET -21.527611 0.000000 0.000000
                    CHANNELS 3 Zrotation Xrotation Yrotation
                    JOINT RightForeArm
                    {
                        OFFSET -56.353916 0.000000 0.000000
                        CHANNELS 3 Zrotation Xrotation Yrotation
                        JOINT RightHand
                        {
                            OFFSET -47.774071 0.000000 0.000000
                            CHANNELS 3 Zrotation Xrotation Yrotation
                            End Site
                            {
                                OFFSET -26.556021 0.000000 0.000000
                            }
                        }
                    }
                }
            }
        }
    }
    JOINT LeftUpLeg
    {
        OFFSET 17.704014 0.000000 0.000000
        CHANNELS 3 Zrotation Xrotation Yrotation
        JOINT LeftLeg
        {
            OFFSET -0.000000 -81.181816 0.000000
            CHANNELS 3 Zrotation Xrotation Yrotation
            JOINT LeftFoot
            {
                OFFSET -0.000000 -62.821102 0.000000
                CHANNELS 3 Zrotation Xrotation Yrotation
                JOINT LeftToeBase
                {
                    OFFSET -0.000000 -11.507608 26.556021
                    CHANNELS 3 Zrotation Xrotation Yrotation
                    End Site
                    {
                        OFFSET -0.000000 0.000000 7.081605
                    }
                }
            }
        }
    }
    JOINT RightUpLeg
    {
        OFFSET -17.704014 0.000000 0.000000
        CHANNELS 3 Zrotation Xrotation Yrotation
        JOINT RightLeg
        {
            OFFSET -0.000000 -81.181816 0.000000
            CHANNELS 3 Zrotation Xrotation Yrotation
            JOINT RightFoot
            {
                OFFSET -0.000000 -62.821102 0.000000
                CHANNELS 3 Zrotation Xrotation Yrotation
                JOINT RightToeBase
                {
                    OFFSET -0.000000 -11.507608 26.556021
                    CHANNELS 3 Zrotation Xrotation Yrotation
                    End Site
                    {
                        OFFSET -0.000000 0.000000 7.081605
                    }
                }
            }
        }
    }
}
MOTION
Frames:    9
Frame Time:    0.008333
-9.144160    151.703125    -13.559925    0.127123    0.731772    22.196297    -1.148274    -0.398770    7.423760    -3.833725    2.403427    2.557016    -5.423543    -3.296157    -14.867311    18.300407    4.246724    -12.624507    4.852985    1.706667    -10.863378    -32.026852    7.939119    -67.152115    -3.909295    -28.477234    -99.452362    -3.209847    -32.209675    -10.350406    -12.735606    2.149182    6.553914    22.497892    -19.797922    56.383896    -6.675695    -20.661261    14.053855    12.060050    -15.549856    41.232552    1.267278    -33.877213    -27.229633    -10.179887    21.364044    -21.891562    -10.760877    3.954252    29.517136    0.000000    0.000000    0.000000    3.025233    11.390085    -13.563923    3.114773    24.209669    -0.800077    -3.384721    -31.485142    -6.417936    0.000000    0.000000    0.000000    
-9.165854    151.708694    -13.530642    0.133030    0.723393    22.198677    -1.144839    -0.382884    7.447450    -3.834216    2.384150    2.564230    -5.425017    -3.279388    -14.880936    18.294397    4.257738    -12.641766    4.772954    1.739108    -10.799449    -32.117695    7.867257    -67.059151    -3.532767    -29.127033    -98.764427    -3.356738    -32.405022    -10.383570    -12.728259    2.132411    6.558640    22.484192    -19.804272    56.350063    -6.652656    -20.642740    14.024709    12.050821    -15.538265    41.235088    1.275848    -33.862095    -27.220121    -10.183578    21.371077    -21.896883    -10.739169    3.950853    29.519346    0.000000    0.000000    0.000000    3.039838    11.413587    -13.568747    3.107482    24.189260    -0.808631    -3.375392    -31.464130    -6.408742    0.000000    0.000000    0.000000    
-9.187216    151.711349    -13.501302    0.139497    0.713207    22.208382    -1.145284    -0.371675    7.467752    -3.826533    2.372243    2.570400    -5.445779    -3.245895    -14.893100    18.320192    4.248278    -12.648238    4.697531    1.766783    -10.749521    -32.203175    7.791292    -66.995575    -2.990807    -29.748875    -97.958557    -2.348728    -32.516510    -9.964397    -12.734141    2.133989    6.572646    22.479317    -19.829481    56.309883    -6.644604    -20.657927    14.008245    11.993786    -15.607238    40.971172    1.275904    -33.846451    -27.221104    -10.182125    21.378403    -21.889822    -10.731311    3.944108    29.511219    0.000000    0.000000    0.000000    3.058359    11.450874    -13.605947    3.093327    24.147123    -0.783861    -3.379827    -31.442308    -6.415355    0.000000    0.000000    0.000000    
-9.208890    151.713806    -13.475171    0.142575    0.714469    22.217941    -1.141045    -0.368329    7.492085    -3.830854    2.356823    2.578075    -5.452421    -3.230088    -14.905124    18.331726    4.252347    -12.659908    4.647855    1.794932    -10.703384    -32.316380    7.748291    -66.897369    -2.554705    -30.373962    -97.238213    -3.065436    -32.610859    -10.294344    -12.743187    2.132053    6.564805    22.488377    -19.837374    56.288979    -6.644844    -20.650938    13.976977    11.984833    -15.606529    40.958569    1.275844    -33.846565    -27.223686    -10.180863    21.389116    -21.891882    -10.728507    3.940634    29.502872    0.000000    0.000000    0.000000    3.071605    11.469753    -13.615980    3.092542    24.116692    -0.805213    -3.364016    -31.431410    -6.381576    0.000000    0.000000    0.000000    
-9.232894    151.714508    -13.449065    0.146161    0.716144    22.228668    -1.142103    -0.356651    7.512098    -3.833578    2.329649    2.583855    -5.474574    -3.231788    -14.915369    18.363657    4.285500    -12.668639    4.596073    1.826934    -10.648511    -32.439381    7.707346    -66.800873    -2.170152    -30.954929    -96.588547    -3.680249    -32.738224    -10.406503    -12.748676    2.154363    6.555906    22.505762    -19.869139    56.289539    -6.647655    -20.639179    13.937874    11.991162    -15.592664    40.970009    1.275355    -33.849113    -27.214556    -10.180338    21.403734    -21.893610    -10.722599    3.935788    29.493847    0.000000    0.000000    0.000000    3.089505    11.489392    -13.637106    3.078437    24.084124    -0.794964    -3.352094    -31.420191    -6.378097    0.000000    0.000000    0.000000    
-9.255036    151.713287    -13.423903    0.149934    0.716797    22.242287    -1.143525    -0.350866    7.527543    -3.836426    2.316983    2.588612    -5.446468    -3.215981    -14.921366    18.336561    4.262955    -12.679943    4.561668    1.855860    -10.600475    -32.597378    7.651052    -66.693253    -1.800089    -31.461100    -95.999008    -4.066103    -32.844700    -10.229962    -12.751793    2.168713    6.561616    22.495823    -19.888714    56.260948    -6.669117    -20.659227    13.906969    12.032307    -15.598134    40.964756    1.275013    -33.852455    -27.228783    -10.190885    21.415796    -21.904520    -10.716570    3.931877    29.510262    0.000000    0.000000    0.000000    3.106097    11.509967    -13.646544    3.074447    24.050928    -0.783463    -3.370806    -31.411991    -6.398706    0.000000    0.000000    0.000000    
-9.280001    151.713562    -13.401735    0.145915    0.725379    22.256824    -1.132208    -0.348294    7.543656    -3.856268    2.295255    2.593649    -5.445813    -3.201753    -14.928878    18.357033    4.253757    -12.685049    4.527991    1.893914    -10.551498    -32.651695    7.665789    -66.631401    -1.285641    -32.106270    -95.307800    -4.348593    -32.967808    -10.190523    -12.738737    2.166103    6.560039    22.510584    -19.918608    56.251991    -6.662619    -20.666016    13.870570    12.045162    -15.602363    40.972610    1.277638    -33.872765    -27.218376    -10.192533    21.442062    -21.947252    -10.707095    3.927345    29.523024    0.000000    0.000000    0.000000    3.126157    11.513826    -13.646983    3.071429    24.030664    -0.785414    -3.371385    -31.396200    -6.411943    0.000000    0.000000    0.000000    
-9.299440    151.713104    -13.377449    0.148812    0.731736    22.276340    -1.136503    -0.341265    7.552498    -3.848834    2.273295    2.595676    -5.467323    -3.206116    -14.937696    18.373919    4.268268    -12.690826    4.469213    1.939542    -10.498167    -32.694855    7.686786    -66.571564    -0.829690    -32.722309    -94.688545    -4.596851    -33.135265    -10.126931    -12.744460    2.165802    6.560750    22.472027    -19.888531    56.227867    -6.693716    -20.742533    13.825683    11.975963    -15.706261    40.963764    1.266696    -33.883011    -27.231274    -10.191797    21.460661    -21.984440    -10.695626    3.926266    29.545166    0.000000    0.000000    0.000000    3.140089    11.525704    -13.644234    3.077365    24.004240    -0.780183    -3.369415    -31.383095    -6.446032    0.000000    0.000000    0.000000    
-9.319417    151.713913    -13.356967    0.147118    0.743128    22.294302    -1.133258    -0.339337    7.567675    -3.849673    2.251550    2.599988    -5.483342    -3.185403    -14.944911    18.395624    4.234044    -12.688766    4.405721    1.976915    -10.465208    -32.699051    7.723466    -66.502480    -0.408332    -33.314930    -94.121872    -4.726682    -33.335804    -9.975074    -12.743532    2.164222    6.567158    22.486078    -19.927896    56.207874    -6.683230    -20.767441    13.803850    11.994183    -15.727921    40.962227    1.264539    -33.900482    -27.255812    -10.206091    21.469057    -22.008158    -10.679790    3.932569    29.566870    0.000000    0.000000    0.000000    3.152928    11.524136    -13.648664    3.080566    23.990547    -0.798829    -3.364549    -31.365120    -6.435785    0.000000    0.000000    0.000000    
